<svg width="681" height="1066" viewBox="0 0 681 1066" fill="none" xmlns="http://www.w3.org/2000/svg">
<circle cx="323" cy="743" r="323" fill="#272525"/>
<path fill-rule="evenodd" clip-rule="evenodd" d="M385.069 501.843C360.296 493.519 333.714 489 306.053 489C171.819 489 63 595.421 63 726.699C63 767.723 73.6268 806.32 92.3352 840C90.4516 836.609 88.6501 833.168 86.9329 829.68C109.583 670.584 228.946 541.761 385.069 501.843Z" fill="#2E2B2B"/>
<path d="M558.962 525.43C807.339 206.331 527.296 242.232 445.289 245.244C363.282 248.256 294.043 196.542 266.5 150.5" stroke="black" stroke-width="36"/>
<path d="M280.798 60.0172L269.921 115.976L269.297 119.185L272.157 120.77L322.015 148.407L265.434 155.355L262.189 155.753L261.565 158.963L250.688 214.921L226.596 163.256L225.215 160.293L221.969 160.692L165.388 167.639L207.08 128.761L209.471 126.531L208.089 123.568L183.998 71.9029L233.856 99.54L236.716 101.125L239.107 98.8953L280.798 60.0172Z" fill="#D68126" stroke="#272525" stroke-width="9"/>
</svg>
