<svg width="946" height="946" viewBox="0 0 946 946" fill="none" xmlns="http://www.w3.org/2000/svg">
<path d="M192.007 95.6053C192.007 95.6053 268.308 157.495 393.417 129.602C512.036 103.247 622.63 73.3151 808.43 140.422V537.728C808.43 537.728 637.544 456.239 481.882 492.586C326.221 528.933 238.213 514.98 192.007 468.774" fill="#E21B1B"/>
<path d="M197.219 69.3316H167.657V946H197.219V69.3316Z" fill="#999999"/>
<path d="M182.44 89.7372C207.22 89.7372 227.308 69.6488 227.308 44.8686C227.308 20.0883 207.22 0 182.44 0C157.66 0 137.571 20.0883 137.571 44.8686C137.571 69.6488 157.66 89.7372 182.44 89.7372Z" fill="#666666"/>
</svg>
