<svg width="1104" height="1303" viewBox="0 0 1104 1303" fill="none" xmlns="http://www.w3.org/2000/svg">
<rect x="880.376" y="112.827" width="79.8943" height="819.025" rx="8" transform="rotate(35 880.376 112.827)" fill="#8C5A41" stroke="#272525" stroke-width="10"/>
<rect x="778.102" y="41.2141" width="329.601" height="79.8943" rx="8" transform="rotate(35 778.102 41.2141)" fill="#2E2B2B" stroke="#272525" stroke-width="10"/>
<mask id="path-3-inside-1_11_4" fill="white">
<path fill-rule="evenodd" clip-rule="evenodd" d="M312.647 629.798C303.599 623.462 291.128 625.661 284.792 634.709L108.651 886.264C107.44 887.994 106.541 889.849 105.942 891.762C98.6577 900.132 94.727 911.62 96.8983 924.491L126.441 1099.61C130.049 1121 142.085 1140.05 159.853 1152.49L214.918 1191.04C232.686 1203.49 254.701 1208.28 276.033 1204.36L450.696 1172.22C463.13 1169.94 472.388 1162.71 477.84 1153.44C479.792 1152.11 481.54 1150.42 482.973 1148.37L659.114 896.812C665.45 887.764 663.251 875.293 654.203 868.958L312.647 629.798Z"/>
</mask>
<path fill-rule="evenodd" clip-rule="evenodd" d="M312.647 629.798C303.599 623.462 291.128 625.661 284.792 634.709L108.651 886.264C107.44 887.994 106.541 889.849 105.942 891.762C98.6577 900.132 94.727 911.62 96.8983 924.491L126.441 1099.61C130.049 1121 142.085 1140.05 159.853 1152.49L214.918 1191.04C232.686 1203.49 254.701 1208.28 276.033 1204.36L450.696 1172.22C463.13 1169.94 472.388 1162.71 477.84 1153.44C479.792 1152.11 481.54 1150.42 482.973 1148.37L659.114 896.812C665.45 887.764 663.251 875.293 654.203 868.958L312.647 629.798Z" fill="#2E2B2B"/>
<path d="M105.942 891.762L121.029 904.891L123.777 901.734L125.028 897.739L105.942 891.762ZM96.8983 924.491L116.62 921.164L116.62 921.164L96.8983 924.491ZM126.441 1099.61L106.72 1102.94L106.72 1102.94L126.441 1099.61ZM276.033 1204.36L279.652 1224.03L279.652 1224.03L276.033 1204.36ZM450.696 1172.22L454.314 1191.89L454.314 1191.89L450.696 1172.22ZM477.84 1153.44L466.597 1136.9L462.878 1139.43L460.6 1143.3L477.84 1153.44ZM301.175 646.181C301.183 646.169 301.188 646.163 301.19 646.162C301.191 646.16 301.19 646.161 301.188 646.164C301.185 646.166 301.181 646.17 301.177 646.173C301.172 646.176 301.168 646.179 301.165 646.181C301.158 646.186 301.155 646.186 301.157 646.186C301.16 646.184 301.167 646.182 301.175 646.181C301.184 646.179 301.19 646.179 301.193 646.179C301.196 646.179 301.193 646.179 301.185 646.178C301.181 646.177 301.176 646.176 301.171 646.174C301.166 646.172 301.161 646.171 301.158 646.169C301.154 646.167 301.153 646.167 301.155 646.168C301.157 646.169 301.163 646.173 301.175 646.181L324.118 613.415C306.022 600.744 281.08 605.142 268.409 623.238L301.175 646.181ZM125.034 897.736L301.175 646.181L268.409 623.238L92.2684 874.793L125.034 897.736ZM125.028 897.739C125.027 897.743 125.025 897.747 125.024 897.75C125.023 897.753 125.022 897.756 125.021 897.757C125.021 897.758 125.021 897.757 125.023 897.754C125.024 897.751 125.028 897.745 125.034 897.736L92.2684 874.793C89.8659 878.224 88.0617 881.935 86.8562 885.784L125.028 897.739ZM116.62 921.164C115.497 914.509 117.461 908.991 121.029 904.891L90.8553 878.632C79.8545 891.272 73.9571 908.732 77.177 927.818L116.62 921.164ZM146.162 1096.28L116.62 921.164L77.177 927.818L106.72 1102.94L146.162 1096.28ZM171.324 1136.1C157.944 1126.74 148.88 1112.39 146.162 1096.28L106.72 1102.94C111.219 1129.61 126.226 1153.36 148.381 1168.87L171.324 1136.1ZM226.389 1174.66L171.324 1136.1L148.381 1168.87L203.446 1207.43L226.389 1174.66ZM272.415 1184.69C256.349 1187.64 239.77 1184.03 226.389 1174.66L203.446 1207.43C225.601 1222.94 253.052 1228.92 279.652 1224.03L272.415 1184.69ZM447.077 1152.55L272.415 1184.69L279.652 1224.03L454.314 1191.89L447.077 1152.55ZM460.6 1143.3C457.943 1147.82 453.524 1151.37 447.077 1152.55L454.314 1191.89C472.736 1188.5 486.833 1177.6 495.081 1163.58L460.6 1143.3ZM466.59 1136.9C466.583 1136.91 466.578 1136.91 466.576 1136.91C466.574 1136.92 466.575 1136.92 466.577 1136.91C466.579 1136.91 466.582 1136.91 466.585 1136.91C466.589 1136.9 466.593 1136.9 466.597 1136.9L489.084 1169.98C493.011 1167.31 496.51 1163.9 499.356 1159.84L466.59 1136.9ZM642.731 885.341L466.59 1136.9L499.356 1159.84L675.497 908.284L642.731 885.341ZM642.731 885.341C642.743 885.349 642.749 885.354 642.75 885.356C642.752 885.357 642.751 885.356 642.748 885.353C642.746 885.351 642.742 885.347 642.739 885.342C642.736 885.338 642.733 885.334 642.731 885.331C642.726 885.324 642.725 885.321 642.726 885.323C642.728 885.326 642.73 885.332 642.731 885.341C642.733 885.349 642.733 885.356 642.733 885.359C642.733 885.362 642.733 885.359 642.734 885.351C642.735 885.347 642.736 885.342 642.738 885.337C642.74 885.331 642.741 885.327 642.743 885.323C642.745 885.32 642.745 885.319 642.744 885.321C642.743 885.322 642.739 885.329 642.731 885.341L675.497 908.284C688.168 890.188 683.77 865.246 665.674 852.575L642.731 885.341ZM301.175 646.181L642.731 885.341L665.674 852.575L324.118 613.415L301.175 646.181Z" fill="#272525" mask="url(#path-3-inside-1_11_4)"/>
</svg>
